<svg width="0" height="0" class="hidden">
    <symbol fill="none" xmlns="http://www.w3.org/2000/svg" viewBox="0 0 62 62" id="icon-1">
        <path fill-rule="evenodd" clip-rule="evenodd" d="M31 0L0 0L31 31L0 31L31 62H62L31 31L62 31L31 0Z"
              fill="#FFB800"></path>
    </symbol>
    <symbol fill="none" xmlns="http://www.w3.org/2000/svg" viewBox="0 0 66 66" id="icon-2">
        <path fill-rule="evenodd" clip-rule="evenodd"
              d="M14.2744 57.6355L14.2744 66H18.7257V57.6355C18.7257 54.3715 21.3717 51.7255 24.6357 51.7255H24.6518H33H41.3477H41.3645C44.6282 51.7255 47.2745 54.3715 47.2745 57.6355V66H51.7255V57.6355C51.7255 54.3715 54.3718 51.7255 57.6358 51.7255H57.6517H66V47.2745H57.6517H57.6358C54.3718 47.2745 51.7255 44.6285 51.7255 41.3645V33V24.6356C51.7255 21.3716 54.3718 18.7256 57.6358 18.7256L57.6517 18.7256H66V14.2744H57.6517H57.6358C54.3718 14.2744 51.7255 11.6284 51.7255 8.36438V0L47.2745 1.94568e-07V8.36438C47.2745 11.6284 44.6282 14.2744 41.3645 14.2744H41.3483H33H24.6517H24.6357C21.3717 14.2744 18.7257 11.6284 18.7257 8.36438V1.44247e-06L14.2744 1.63705e-06V8.36438C14.2744 11.6284 11.6283 14.2744 8.36435 14.2744L8.34828 14.2744H0L2.47665e-08 18.7256H8.34781L8.36435 18.7256C11.6283 18.7256 14.2744 21.3716 14.2744 24.6356L14.2744 33L14.2744 41.3645C14.2744 44.6285 11.6283 47.2745 8.36435 47.2745H8.34828H0L2.47665e-08 51.7255H8.34781H8.36435C11.6283 51.7255 14.2744 54.3715 14.2744 57.6355ZM47.2745 33V24.6356C47.2745 21.3716 44.6282 18.7256 41.3645 18.7256L41.3477 18.7256H33H24.6518L24.6357 18.7256C21.3717 18.7256 18.7257 21.3716 18.7257 24.6356V33V41.3645C18.7257 44.6285 21.3717 47.2745 24.6357 47.2745H24.6517H33H41.3483H41.3645C44.6282 47.2745 47.2745 44.6285 47.2745 41.3645V33Z"
              fill="url(#paint0_linear_11_28)"></path>
        <defs>
            <linearGradient id="paint0_linear_11_28" x1="33" y1="-24.7352" x2="33" y2="62.8122"
                            gradientUnits="userSpaceOnUse">
                <stop stop-color="#F93871"></stop>
                <stop offset="0.333333" stop-color="#DC3335"></stop>
                <stop offset="0.6875" stop-color="#FF10E3"></stop>
                <stop offset="1" stop-color="#41819A"></stop>
            </linearGradient>
        </defs>
    </symbol>
    <symbol fill="none" xmlns="http://www.w3.org/2000/svg" viewBox="0 0 66 65" id="icon-3">
        <path fill-rule="evenodd" clip-rule="evenodd"
              d="M10.56 32.5001C10.56 21.9513 17.8745 13.1068 27.72 10.7382V0C12.0045 2.52102 0 16.1121 0 32.5001C0 48.8879 12.0045 62.4791 27.72 65V54.2618C17.8745 51.8933 10.56 43.0486 10.56 32.5001ZM66 32.5001C66 48.8879 53.9956 62.4791 38.28 65V54.2618C48.1256 51.8933 55.44 43.0486 55.44 32.5001C55.44 21.9513 48.1256 13.1068 38.28 10.7382V0C53.9956 2.52102 66 16.1121 66 32.5001Z"
              fill="#CD151D"></path>
    </symbol>
    <symbol fill="none" xmlns="http://www.w3.org/2000/svg" viewBox="0 0 72 72" id="icon-4">
        <path fill-rule="evenodd" clip-rule="evenodd"
              d="M47.569 59.2333C44.0755 65.056 39.8509 67.68 36 67.68C32.1489 67.68 27.9244 65.056 24.4309 59.2333C20.9889 53.4967 18.72 45.2927 18.72 36C18.72 26.7072 20.9889 18.5034 24.4309 12.7668C27.9244 6.94422 32.1489 4.32 36 4.32C39.8509 4.32 44.0755 6.94422 47.569 12.7668C51.0109 18.5034 53.28 26.7072 53.28 36C53.28 45.2927 51.0109 53.4967 47.569 59.2333ZM72 36C72 16.1177 55.8821 0 36 0C16.1177 0 0 16.1177 0 36C0 55.8821 16.1177 72 36 72C55.8821 72 72 55.8821 72 36ZM4.32 36C4.32 48.9348 12.0717 60.0588 23.183 64.98C17.8554 58.424 14.4 47.8847 14.4 36C14.4 24.1154 17.8554 13.5759 23.183 7.01982C12.0717 11.9412 4.32 23.0653 4.32 36ZM67.68 36C67.68 48.9348 59.9281 60.0588 48.8171 64.98C54.1447 58.424 57.6 47.8847 57.6 36C57.6 24.1154 54.1447 13.5759 48.8171 7.01982C59.9281 11.9412 67.68 23.0653 67.68 36ZM36 39.96C38.187 39.96 39.96 38.187 39.96 36C39.96 33.813 38.187 32.04 36 32.04C33.813 32.04 32.04 33.813 32.04 36C32.04 38.187 33.813 39.96 36 39.96Z"
              fill="#038464"></path>
    </symbol>
    <symbol fill="none" xmlns="http://www.w3.org/2000/svg" viewBox="0 0 53 53" id="icon-5">
        <path fill-rule="evenodd" clip-rule="evenodd"
              d="M11.66 0H0V39.75C0 47.0677 5.93224 53 13.25 53H24.91V13.25C24.91 5.93224 18.9778 0 11.66 0ZM41.34 0C34.0223 0 28.09 5.93224 28.09 13.25V53H39.75C47.0677 53 53 47.0677 53 39.75V0H41.34Z"
              fill="#9004FE"></path>
    </symbol>
    <symbol fill="none" xmlns="http://www.w3.org/2000/svg" viewBox="0 0 74 74" id="icon-6">
        <path fill-rule="evenodd" clip-rule="evenodd"
              d="M37 74C57.4344 74 74 57.4344 74 37C74 16.5655 57.4344 0 37 0C16.5655 0 0 16.5655 0 37C0 57.4344 16.5655 74 37 74ZM37 53.1875C45.9399 53.1875 53.1875 45.9399 53.1875 37C53.1875 28.0599 45.9399 20.8125 37 20.8125C28.0599 20.8125 20.8125 28.0599 20.8125 37C20.8125 45.9399 28.0599 53.1875 37 53.1875Z"
              fill="#04FFC9"></path>
    </symbol>
    <symbol fill="none" xmlns="http://www.w3.org/2000/svg" viewBox="0 0 64 64" id="icon-7">
        <path d="M0 0H32C49.673 0 64 14.3269 64 32V64H32C14.3269 64 0 49.673 0 32V0Z"
              fill="url(#paint0_linear_11_92)"></path>
        <defs>
            <linearGradient id="paint0_linear_11_92" x1="24" y1="-2.5" x2="56" y2="70.5" gradientUnits="userSpaceOnUse">
                <stop stop-color="#F93871"></stop>
                <stop offset="0.989583" stop-color="#305565"></stop>
            </linearGradient>
        </defs>
    </symbol>
    <symbol fill="none" xmlns="http://www.w3.org/2000/svg" viewBox="0 0 95 95" id="icon-8">
        <path d="M1 46.5V1H46.5V46.5H1ZM48.5 48.5H94V94H48.5V48.5Z" stroke="white" stroke-width="2"></path>
    </symbol>
</svg>